<svg width="52" height="56" viewBox="0 0 52 56" fill="none" xmlns="http://www.w3.org/2000/svg">
<path d="M51.014 18.983L50.128 14.545L45.466 14.71C43.634 14.713 34.481 14.383 30.375 7.78304L25.937 0.842041L21.443 7.83204C17.449 14.383 8.23701 14.657 6.46401 14.657L1.74601 14.492L0.860007 18.93C0.0527976 24.8351 0.221716 30.8327 1.36001 36.683C2.70495 43.5831 5.93029 49.9774 10.68 55.16V52.72H13.62C9.25391 48.0271 6.29352 42.2023 5.07601 35.909C3.94285 30.5798 3.81161 25.0863 4.68901 19.709L4.91101 18.433L6.46501 18.489C8.62801 18.489 19.612 18.102 24.718 9.88904L25.994 7.88904L27.214 9.83004C32.319 18.099 43.299 18.483 45.522 18.483L47.022 18.427L47.244 19.703C48.1225 25.0802 47.9913 30.574 46.857 35.903C45.6149 42.1878 42.6577 48.0062 38.313 52.714H41.418V55.042C46.1056 49.8541 49.2904 43.4865 50.63 36.624C51.8574 30.8192 51.9876 24.8358 51.014 18.983Z" fill="#4E4B66"/>
<path d="M39.142 25.5322L38.808 23.9172L37.032 23.9732C35.924 23.9732 30.154 23.7512 27.601 19.5352L25.991 17.0352L24.384 19.5972C21.831 23.7572 16.061 23.9782 14.951 23.9782L13.175 23.9172L12.844 25.5272C12.3108 28.7124 12.3862 31.9699 13.066 35.1272C13.6917 38.4357 15.1297 41.5369 17.2506 44.1522C19.3715 46.7674 22.109 48.8147 25.217 50.1102L25.994 50.5002L26.771 50.1662C29.882 48.8772 32.6222 46.8322 34.7431 44.2166C36.864 41.6009 38.2987 38.4974 38.917 35.1872C39.6003 32.0117 39.6756 28.7356 39.139 25.5322M24.993 40.2902L20.112 35.4092L22.612 32.9092L24.993 35.2972L30.264 30.0262L32.764 32.5262L24.993 40.2902Z" fill="#4E4B66"/>
</svg>
