<svg width="70" height="42" viewBox="0 0 70 42" fill="none" xmlns="http://www.w3.org/2000/svg">
<path d="M59.4969 11.1819C59.0717 11.1245 58.643 11.0958 58.2139 11.0959H51.4829C50.4711 11.0961 49.4809 11.3893 48.6319 11.9399V6.48291C48.6306 5.07174 48.0695 3.71874 47.0718 2.72079C46.074 1.72285 44.7211 1.1615 43.3099 1.15991H15.8359C14.3393 1.1615 12.9044 1.75675 11.8461 2.81505C10.7878 3.87335 10.1925 5.30826 10.1909 6.80492V8.61292H7.67593C7.51403 8.60826 7.35286 8.63613 7.20193 8.69487C7.051 8.75361 6.91337 8.84203 6.79722 8.9549C6.68106 9.06776 6.58873 9.20278 6.52567 9.35196C6.46262 9.50114 6.43013 9.66145 6.43013 9.82341C6.43013 9.98537 6.46262 10.1457 6.52567 10.2949C6.58873 10.444 6.68106 10.5791 6.79722 10.6919C6.91337 10.8048 7.051 10.8932 7.20193 10.952C7.35286 11.0107 7.51403 11.0386 7.67593 11.0339H10.1919V13.5789H2.70893C2.54704 13.5742 2.38586 13.6021 2.23492 13.6609C2.08399 13.7196 1.94638 13.808 1.83022 13.9209C1.71407 14.0337 1.62173 14.1688 1.55868 14.3179C1.49563 14.4671 1.46313 14.6275 1.46313 14.7894C1.46313 14.9514 1.49563 15.1117 1.55868 15.2609C1.62173 15.41 1.71407 15.5451 1.83022 15.6579C1.94638 15.7708 2.08399 15.8592 2.23492 15.918C2.38586 15.9767 2.54704 16.0046 2.70893 15.9999H10.1919V18.5459H6.43493C6.27304 18.5413 6.11185 18.5691 5.96092 18.6279C5.80999 18.6866 5.67238 18.775 5.55622 18.8879C5.44006 19.0008 5.34773 19.1358 5.28468 19.285C5.22162 19.4341 5.18913 19.5944 5.18913 19.7564C5.18913 19.9184 5.22162 20.0787 5.28468 20.2279C5.34773 20.377 5.44006 20.5121 5.55622 20.6249C5.67238 20.7378 5.80999 20.8262 5.96092 20.8849C6.11185 20.9437 6.27304 20.9716 6.43493 20.9669H10.1919V23.5119H2.70893C2.54704 23.5073 2.38586 23.5351 2.23492 23.5939C2.08399 23.6526 1.94638 23.741 1.83022 23.8539C1.71407 23.9667 1.62173 24.1018 1.55868 24.251C1.49563 24.4001 1.46313 24.5605 1.46313 24.7224C1.46313 24.8844 1.49563 25.0447 1.55868 25.1939C1.62173 25.343 1.71407 25.4781 1.83022 25.5909C1.94638 25.7038 2.08399 25.7922 2.23492 25.851C2.38586 25.9097 2.54704 25.9376 2.70893 25.9329H10.1919V28.1999C10.1938 29.9041 10.8716 31.5381 12.0767 32.7431C13.2818 33.9482 14.9157 34.6261 16.6199 34.6279H17.6459C17.6459 34.6389 17.6459 34.6479 17.6459 34.6579C17.6459 36.2967 18.2969 37.8683 19.4557 39.0271C20.6145 40.1859 22.1862 40.8369 23.8249 40.8369C25.4637 40.8369 27.0354 40.1859 28.1941 39.0271C29.3529 37.8683 30.0039 36.2967 30.0039 34.6579C30.0039 34.6469 30.0039 34.6379 30.0039 34.6279H51.1839C51.1839 34.6389 51.1839 34.6479 51.1839 34.6579C51.1839 36.2967 51.8349 37.8683 52.9937 39.0271C54.1525 40.1859 55.7242 40.8369 57.3629 40.8369C59.0017 40.8369 60.5734 40.1859 61.7321 39.0271C62.8909 37.8683 63.5419 36.2967 63.5419 34.6579C63.5419 34.6469 63.5419 34.6379 63.5419 34.6279H64.0339C65.2212 34.6266 66.3594 34.1544 67.1989 33.3149C68.0384 32.4754 68.5106 31.3371 68.5119 30.1499V21.3889C68.5122 18.8831 67.597 16.4636 65.9385 14.5852C64.28 12.7068 61.9924 11.499 59.5059 11.1889L59.4969 11.1819ZM59.1859 13.5819C61.0898 13.816 62.8423 14.7383 64.1133 16.175C65.3842 17.6118 66.0859 19.4637 66.0859 21.3819V22.2709H57.8919C57.4128 22.2706 56.9534 22.0804 56.6145 21.7418C56.2755 21.4032 56.0847 20.944 56.0839 20.4649V13.5139H58.2139C58.5394 13.5135 58.8646 13.5359 59.1869 13.5809L59.1859 13.5819ZM23.8229 38.4179C23.0799 38.4179 22.3535 38.1976 21.7356 37.7847C21.1178 37.3719 20.6363 36.7851 20.3519 36.0986C20.0676 35.4121 19.9932 34.6567 20.1381 33.9279C20.2831 33.1992 20.6409 32.5297 21.1663 32.0043C21.6918 31.4789 22.3612 31.1211 23.09 30.9761C23.8188 30.8311 24.5742 30.9055 25.2607 31.1899C25.9472 31.4743 26.5339 31.9558 26.9468 32.5736C27.3596 33.1915 27.5799 33.9178 27.5799 34.6609C27.5797 35.6575 27.1839 36.6133 26.4794 37.3183C25.775 38.0233 24.8195 38.4199 23.8229 38.4209V38.4179ZM23.8229 28.4819C22.6179 28.4832 21.4394 28.8365 20.4325 29.4985C19.4255 30.1604 18.6339 31.1021 18.1549 32.2079H16.6199C15.5579 32.2066 14.5397 31.7841 13.7887 31.0331C13.0377 30.2821 12.6153 29.264 12.6139 28.2019V25.9349H16.3709C16.686 25.9258 16.985 25.7944 17.2047 25.5683C17.4243 25.3423 17.5471 25.0396 17.5471 24.7244C17.5471 24.4093 17.4243 24.1065 17.2047 23.8805C16.985 23.6545 16.686 23.523 16.3709 23.5139H12.6139V20.9689H18.8549C19.1699 20.9598 19.469 20.8284 19.6887 20.6023C19.9083 20.3763 20.0311 20.0736 20.0311 19.7584C20.0311 19.4433 19.9083 19.1405 19.6887 18.9145C19.469 18.6885 19.1699 18.557 18.8549 18.5479H12.6139V16.0019H16.3709C16.686 15.9929 16.985 15.8614 17.2047 15.6353C17.4243 15.4093 17.5471 15.1066 17.5471 14.7914C17.5471 14.4763 17.4243 14.1735 17.2047 13.9475C16.985 13.7215 16.686 13.59 16.3709 13.5809H12.6139V11.0359H18.8549C19.1699 11.0268 19.469 10.8954 19.6887 10.6693C19.9083 10.4433 20.0311 10.1406 20.0311 9.82541C20.0311 9.51026 19.9083 9.20752 19.6887 8.98149C19.469 8.75547 19.1699 8.62397 18.8549 8.61491H12.6139V6.80692C12.615 5.95245 12.9549 5.13327 13.5591 4.52907C14.1633 3.92487 14.9825 3.58497 15.8369 3.58391H43.3099C43.6908 3.58391 44.0679 3.65892 44.4197 3.80466C44.7716 3.9504 45.0913 4.16401 45.3605 4.4333C45.6298 4.70259 45.8434 5.02229 45.9892 5.37413C46.1349 5.72597 46.2099 6.10308 46.2099 6.48392V32.2129H29.4919C29.013 31.107 28.2214 30.1652 27.2145 29.503C26.2075 28.8409 25.0291 28.4874 23.8239 28.4859L23.8229 28.4819ZM57.3569 38.4179C56.6139 38.4179 55.8875 38.1976 55.2696 37.7847C54.6518 37.3719 54.1703 36.7851 53.8859 36.0986C53.6016 35.4121 53.5272 34.6567 53.6721 33.9279C53.8171 33.1992 54.1749 32.5297 54.7003 32.0043C55.2257 31.4789 55.8952 31.1211 56.624 30.9761C57.3528 30.8311 58.1082 30.9055 58.7947 31.1899C59.4812 31.4743 60.0679 31.9558 60.4808 32.5736C60.8936 33.1915 61.1139 33.9178 61.1139 34.6609C61.1137 35.6577 60.7177 36.6136 60.0131 37.3186C59.3084 38.0237 58.3527 38.4201 57.3559 38.4209L57.3569 38.4179ZM64.0269 32.2079H63.0269C62.549 31.1014 61.7577 30.1589 60.7505 29.4967C59.7433 28.8346 58.5643 28.4818 57.3589 28.4818C56.1536 28.4818 54.9746 28.8346 53.9674 29.4967C52.9602 30.1589 52.1688 31.1014 51.6909 32.2079H48.6339V16.3699C48.6347 15.614 48.9353 14.8893 49.4698 14.3548C50.0043 13.8203 50.729 13.5197 51.4849 13.5189H53.6649V20.4679C53.666 21.5894 54.112 22.6646 54.9051 23.4574C55.6982 24.2503 56.7735 24.6961 57.8949 24.6969H66.0839V30.1559C66.0831 30.7007 65.8664 31.2229 65.4812 31.6081C65.0959 31.9934 64.5737 32.2101 64.0289 32.2109L64.0269 32.2079Z" fill="#4E4B66" stroke="#4E4B66"/>
<path d="M35.196 9.57994C35.0197 9.43111 34.8045 9.33577 34.5758 9.30514C34.3471 9.27452 34.1143 9.3099 33.905 9.40709C33.6957 9.50428 33.5186 9.65924 33.3944 9.85374C33.2702 10.0482 33.2042 10.2742 33.2041 10.5049V12.5229H23.6981C23.3769 12.5229 23.0689 12.6505 22.8418 12.8776C22.6147 13.1047 22.4871 13.4128 22.4871 13.7339V20.1929C22.4871 20.5141 22.6147 20.8221 22.8418 21.0492C23.0689 21.2763 23.3769 21.4039 23.6981 21.4039H33.2041V23.4219C33.204 23.6528 33.2698 23.8789 33.394 24.0735C33.5181 24.2681 33.6952 24.4233 33.9046 24.5206C34.1139 24.6179 34.3467 24.6533 34.5755 24.6228C34.8043 24.5922 35.0196 24.4968 35.196 24.3479L42.851 17.8889C42.9857 17.7753 43.094 17.6337 43.1683 17.474C43.2425 17.3142 43.281 17.1401 43.281 16.9639C43.281 16.7877 43.2425 16.6137 43.1683 16.4539C43.094 16.2941 42.9857 16.1525 42.851 16.0389L35.196 9.57994ZM35.6261 20.8159V20.1929C35.6261 20.0339 35.5947 19.8764 35.5339 19.7295C35.473 19.5826 35.3838 19.4491 35.2714 19.3366C35.1589 19.2242 35.0254 19.135 34.8785 19.0741C34.7316 19.0133 34.5741 18.9819 34.4151 18.9819H24.9091V14.9449H34.4151C34.5741 14.9449 34.7316 14.9136 34.8785 14.8528C35.0254 14.7919 35.1589 14.7027 35.2714 14.5902C35.3838 14.4778 35.473 14.3443 35.5339 14.1974C35.5947 14.0504 35.6261 13.893 35.6261 13.7339V13.1109L40.192 16.9629L35.6261 20.8159Z" fill="#4E4B66" stroke="#4E4B66" stroke-width="1.25"/>
</svg>
