<svg width="49" height="64" viewBox="0 0 49 64" fill="none" xmlns="http://www.w3.org/2000/svg">
<path d="M48.3401 43.463L34.0251 16.572C33.5893 15.755 32.9581 15.0586 32.1877 14.5449C31.4174 14.0312 30.5318 13.7162 29.6101 13.628L19.1101 12.628C18.7607 10.9895 18.1738 9.41085 17.3681 7.94202C16.0876 5.40465 14.176 3.23927 11.8171 1.65402C9.27306 0.117024 6.73206 -0.145976 4.72606 0.920024C2.65106 1.98802 1.51406 4.26402 1.37906 7.20802C1.39224 10.0562 2.10478 12.8576 3.45406 15.366C4.22463 16.8669 5.2175 18.2427 6.39906 19.447L1.31406 28.679C0.87046 29.489 0.637939 30.3976 0.637939 31.321C0.637939 32.2445 0.87046 33.1531 1.31406 33.963L15.5611 60.787C16.0422 61.6803 16.7567 62.4263 17.6285 62.9454C18.5002 63.4646 19.4965 63.7375 20.5111 63.735C21.4234 63.7352 22.321 63.5055 23.1211 63.067L46.0661 50.888C47.3491 50.2019 48.3084 49.0357 48.7343 47.6444C49.1602 46.2532 49.0181 44.7499 48.3391 43.463M5.52906 7.34002C5.59506 6.00202 5.99506 4.93102 6.66606 4.59702C7.1577 4.45327 7.67718 4.43281 8.1786 4.53745C8.68002 4.6421 9.14795 4.86863 9.54106 5.19702C11.2781 6.38501 12.6826 7.99741 13.6211 9.88102C14.0228 10.631 14.3575 11.4151 14.6211 12.224L14.1521 12.158C13.0681 12.063 11.9799 12.2842 11.019 12.7948C10.0581 13.3054 9.26587 14.0835 8.73806 15.035L8.53806 15.435C8.02423 14.7521 7.55461 14.0369 7.13206 13.294C6.12444 11.4682 5.57537 9.42497 5.53206 7.34002M44.0571 47.276L21.1151 59.449C20.8025 59.6072 20.4412 59.64 20.1053 59.5405C19.7693 59.441 19.4841 59.2169 19.3081 58.914L4.99406 32.023C4.89473 31.8263 4.84299 31.6089 4.84299 31.3885C4.84299 31.1681 4.89473 30.9508 4.99406 30.754L9.74206 22.054C10.8915 22.6863 12.1774 23.0295 13.4891 23.054C13.8237 23.0649 14.1587 23.0428 14.4891 22.988C14.7574 22.9414 15.0139 22.842 15.2436 22.6956C15.4733 22.5492 15.6716 22.3587 15.8272 22.1351C15.9828 21.9116 16.0925 21.6594 16.15 21.3931C16.2075 21.1269 16.2116 20.8519 16.1621 20.584C16.1217 20.3126 16.0263 20.0523 15.8816 19.8192C15.737 19.5861 15.5461 19.385 15.3208 19.2284C15.0955 19.0718 14.8406 18.9629 14.5717 18.9085C14.3027 18.8541 14.0255 18.8553 13.7571 18.912C13.0557 18.9631 12.3553 18.8006 11.7481 18.446L12.4191 17.174C12.5301 16.9512 12.7014 16.764 12.9135 16.6337C13.1257 16.5034 13.3701 16.4352 13.6191 16.437H13.7541L29.2051 17.837C29.4297 17.8646 29.6444 17.946 29.8309 18.0743C30.0173 18.2026 30.17 18.374 30.2761 18.574L44.5931 45.402C44.762 45.7231 44.8006 46.0969 44.701 46.4458C44.6013 46.7946 44.3711 47.0916 44.0581 47.275" fill="#4E4B66"/>
<path d="M27.119 47.097L23.947 40.872L28.413 38.599C32.196 36.671 32.972 32.999 31.42 29.953C29.853 26.88 26.471 25.364 22.657 27.304L14.462 31.478L23.39 48.998L27.119 47.097ZM26.241 35.568L22.271 37.589L19.866 32.861L23.833 30.84C24.145 30.6413 24.4953 30.5104 24.8611 30.456C25.2269 30.4016 25.6001 30.4248 25.9564 30.5242C26.3126 30.6235 26.644 30.7967 26.9289 31.0325C27.2138 31.2684 27.4459 31.5615 27.61 31.893C27.7794 32.2211 27.8782 32.581 27.9004 32.9496C27.9225 33.3181 27.8673 33.6873 27.7384 34.0333C27.6095 34.3793 27.4097 34.6945 27.1519 34.9588C26.894 35.2231 26.5838 35.4306 26.241 35.568Z" fill="#4E4B66"/>
<path d="M17.886 46.448L19.068 48.767L31.725 42.317L30.543 39.998L17.886 46.448Z" fill="#4E4B66"/>
<path d="M23.027 48.344L24.573 51.371L28.317 49.471L26.771 46.437L23.027 48.344Z" fill="#2B2E34"/>
</svg>
