<svg width="50" height="50" viewBox="0 0 50 50" fill="none" xmlns="http://www.w3.org/2000/svg">
<path d="M5.6049 39.2629C6.18029 39.2629 6.64661 39.7293 6.64661 40.3046V40.4046C6.64661 40.98 6.1802 41.4463 5.6049 41.4463C5.02961 41.4463 4.5632 40.9799 4.5632 40.4046V40.3046C4.5632 39.7293 5.02961 39.2629 5.6049 39.2629Z" fill="#6E7191"/>
<path d="M2.29991 28.1384C2.50596 22.6923 4.62149 17.585 8.32677 13.5886C8.07355 13.0813 7.9714 12.5195 8.03527 11.943C8.19728 10.4832 9.36916 9.05275 11.5183 7.69141C15.5471 5.13916 20.2091 3.79004 25 3.79004C29.7912 3.79004 34.4531 5.13907 38.4816 7.69141C40.6309 9.05275 41.8028 10.4833 41.9647 11.9432C42.0286 12.5196 41.9266 13.0815 41.6732 13.5886C45.4192 17.629 47.5409 22.805 47.7066 28.3185C49.0363 28.7533 50 30.0048 50 31.478V42.8868C50 44.7192 48.5092 46.21 46.6768 46.21H44.3952C43.8198 46.21 43.3535 45.7436 43.3535 45.1683V45.069H42.1134C40.2809 45.069 38.7901 43.5782 38.7901 41.7458V32.619C38.7901 30.7865 40.281 29.2957 42.1134 29.2957H43.3533V29.1963C43.3533 28.6209 43.8197 28.1546 44.395 28.1546H45.6157C45.4153 23.2556 43.5131 18.6615 40.1919 15.0552C39.7668 15.2618 39.2978 15.3667 38.7889 15.3667C37.7225 15.3667 36.4948 14.8944 35.0359 13.9227C32.061 11.941 28.5907 10.8936 25 10.8936C21.4094 10.8936 17.9391 11.941 14.964 13.9228C13.5049 14.8947 12.2772 15.3669 11.2109 15.3668C10.702 15.3667 10.2332 15.2621 9.80803 15.0554C6.52706 18.6181 4.62969 23.1445 4.39102 27.9767H5.60499C6.18038 27.9767 6.64669 28.4431 6.64669 29.0184V29.1172H7.88664C9.71926 29.1172 11.2103 30.6083 11.2103 32.4411V41.5679C11.2103 43.4004 9.71926 44.8911 7.88664 44.8911H6.64659V44.9899C6.64659 45.5653 6.18019 46.0316 5.60489 46.0316H3.32335C1.49082 46.0316 -8.3427e-07 44.5408 -8.3427e-07 42.7084V31.3C-9.84907e-05 29.8245 0.966797 28.5711 2.29991 28.1384ZM45.4369 30.2381V30.3374H45.4368C45.4368 30.9128 44.9704 31.3792 44.3951 31.3792H42.1133C41.4296 31.3792 40.8735 31.9353 40.8735 32.619V41.7458C40.8735 42.4295 41.4297 42.9855 42.1133 42.9855H43.3533V36.6556C43.3533 36.0802 43.8197 35.6139 44.395 35.6139C44.9703 35.6139 45.4367 36.0803 45.4367 36.6556V44.1265H46.6768C47.3604 44.1265 47.9165 43.5704 47.9165 42.8868V31.478C47.9165 30.7943 47.3603 30.2381 46.6768 30.2381H45.4369ZM10.4087 12.9539C10.6365 13.1816 10.8838 13.283 11.2109 13.283C11.6463 13.2831 12.4503 13.0932 13.8088 12.1885C17.1272 9.97823 20.997 8.80987 25 8.80987C29.0032 8.80987 32.873 9.97823 36.1911 12.1885C37.5493 13.0933 38.3536 13.283 38.789 13.283C39.1161 13.283 39.3634 13.1816 39.591 12.9538C39.827 12.7179 39.9261 12.4624 39.8939 12.1728C39.8537 11.8105 39.5271 10.8199 37.3667 9.45148C33.6721 7.11075 29.3958 5.87354 25 5.87354C20.6045 5.87354 16.3282 7.11085 12.6332 9.45148C10.4731 10.8197 10.1464 11.8102 10.1062 12.1727C10.0738 12.4623 10.173 12.718 10.4087 12.9539ZM2.0834 42.7084C2.0834 43.3921 2.63965 43.9481 3.32325 43.9481H4.563V43.8493C4.563 43.2739 5.0295 42.8075 5.6047 42.8075H7.88644C8.57023 42.8075 9.12658 42.2514 9.12658 41.5679V32.441C9.12658 31.7571 8.57033 31.2006 7.88644 31.2006H6.6464V37.4598C6.6464 38.0352 6.17999 38.5015 5.6047 38.5015C5.0294 38.5015 4.563 38.0351 4.563 37.4598V30.0601H3.32325C2.63956 30.0601 2.0834 30.6163 2.0834 31.3V42.7084V42.7084Z" fill="#6E7191"/>
<path d="M44.3951 34.9237C43.8197 34.9237 43.3534 34.4573 43.3534 33.8819V33.7819C43.3534 33.2065 43.8198 32.7402 44.3951 32.7402C44.9704 32.7402 45.4368 33.2066 45.4368 33.7819V33.8819C45.4368 34.4573 44.9705 34.9237 44.3951 34.9237Z" fill="#6E7191"/>
</svg>
