<svg width="25" height="28" viewBox="0 0 25 28" fill="none" xmlns="http://www.w3.org/2000/svg">
<path d="M14.0602 19.9633L22.3635 25.5329C22.4661 25.6017 22.5862 25.6421 22.7108 25.6497C22.8354 25.6573 22.9598 25.6317 23.0705 25.5759C23.1812 25.52 23.2739 25.4359 23.3386 25.3328C23.4033 25.2296 23.4375 25.1113 23.4375 24.9907V7.30738C23.4375 5.90667 22.8613 4.56333 21.8357 3.57288C20.81 2.58243 19.4189 2.026 17.9684 2.026H7.03156C5.58107 2.026 4.19 2.58243 3.16435 3.57288C2.1387 4.56333 1.5625 5.90667 1.5625 7.30738V24.9895C1.56251 25.1101 1.59672 25.2284 1.66141 25.3316C1.72611 25.4347 1.81882 25.5188 1.92949 25.5747C2.04016 25.6305 2.16457 25.6561 2.2892 25.6485C2.41384 25.6409 2.53394 25.6006 2.63649 25.5317L10.941 19.9621C11.399 19.6552 11.9433 19.4908 12.5008 19.491C13.0583 19.4912 13.6025 19.656 14.0602 19.9633V19.9633Z" stroke="#6E7191" stroke-width="2" stroke-linecap="round" stroke-linejoin="round"/>
</svg>
