<svg width="46" height="46" viewBox="0 0 46 46" fill="none" xmlns="http://www.w3.org/2000/svg">
<path d="M41.7473 5.55907C41.7473 4.79148 41.1228 4.16699 40.3552 4.16699H28.3263C27.5587 4.16699 26.9342 4.79148 26.9342 5.55907V7.81121H41.7474V5.55907H41.7473Z" fill="#6E7191"/>
<path d="M14.4945 36.1629C20.1419 36.1629 24.7363 31.5685 24.7363 25.9212C24.7363 20.2739 20.1419 15.6794 14.4945 15.6794C8.84723 15.6794 4.25281 20.2739 4.25281 25.9212C4.25281 31.5685 8.84723 36.1629 14.4945 36.1629ZM9.46459 20.8912C12.2381 18.1181 16.7509 18.1181 19.5243 20.8912C20.8678 22.2348 21.6078 24.0212 21.6078 25.9212C21.6078 27.8211 20.8679 29.6075 19.5242 30.951C18.1809 32.2943 16.3945 33.0343 14.4945 33.0343C12.5946 33.0343 10.8082 32.2944 9.46475 30.951C8.1213 29.6074 7.38127 27.821 7.38127 25.9212C7.38112 24.0212 8.12114 22.2348 9.46459 20.8912Z" fill="#6E7191"/>
<path d="M26.9342 25.9211C26.9342 28.6938 26.0216 31.257 24.4822 33.3276H46V18.5146H24.4821C26.0216 20.5853 26.9342 23.1484 26.9342 25.9211Z" fill="#6E7191"/>
<path d="M2.05482 25.921C2.05482 23.1483 2.96739 20.585 4.50692 18.5144H0V33.3275H4.50676C2.96723 31.2569 2.05482 28.6937 2.05482 25.921Z" fill="#6E7191"/>
<path d="M17.97 29.3968C18.8985 28.4684 19.4098 27.2341 19.4098 25.9212C19.4098 24.6083 18.8985 23.3739 17.97 22.4455C17.0416 21.517 15.8075 21.0059 14.4944 21.0059C13.1814 21.0059 11.9472 21.517 11.0189 22.4455C10.0904 23.3739 9.5791 24.6081 9.5791 25.9212C9.5791 27.234 10.0904 28.4684 11.0189 29.3968C12.9352 31.3133 16.0535 31.3133 17.97 29.3968Z" fill="#6E7191"/>
<path d="M43.4684 10.009H2.53155C1.1356 10.009 0 11.1446 0 12.5406V16.3166H6.59767C8.74712 14.5462 11.4988 13.4815 14.4943 13.4815C17.4899 13.4815 20.2415 14.5462 22.391 16.3166H46V12.5406C46 11.1446 44.8644 10.009 43.4684 10.009ZM39.109 14.3048H30.6035C29.9965 14.3048 29.5044 13.8128 29.5044 13.2058C29.5044 12.5988 29.9965 12.1068 30.6035 12.1068H39.109C39.716 12.1068 40.208 12.5988 40.208 13.2058C40.208 13.8128 39.716 14.3048 39.109 14.3048Z" fill="#6E7191"/>
<path d="M14.4945 38.3609C11.4988 38.3609 8.74712 37.2962 6.59751 35.5256H0V39.3017C0 40.6976 1.1356 41.8332 2.53155 41.8332H43.4684C44.8644 41.8332 46 40.6976 46 39.3017V35.5256H22.3913C20.2419 37.2961 17.4902 38.3609 14.4945 38.3609Z" fill="#6E7191"/>
</svg>
