<svg width="30" height="31" viewBox="0 0 30 31" fill="none" xmlns="http://www.w3.org/2000/svg">
<path d="M1.875 2.2135H4.80041C5.35867 2.21351 5.90013 2.39678 6.33489 2.73289C6.76964 3.06901 7.07154 3.53773 7.19045 4.06124L7.98155 7.52159M7.98155 7.52159L9.33073 14.6843C9.63218 16.3103 10.5193 17.783 11.8371 18.845C13.1548 19.9071 14.8195 20.491 16.5403 20.4948H19.8409C21.506 20.4914 23.1204 19.9445 24.4188 18.9441C25.7173 17.9436 26.6226 16.549 26.986 14.9894L28.2347 9.68474C28.2964 9.42654 28.2968 9.15833 28.2358 8.89998C28.1748 8.64163 28.0541 8.39975 27.8825 8.19224C27.711 7.98474 27.493 7.81693 27.2447 7.70124C26.9964 7.58554 26.7242 7.52493 26.4482 7.52388L7.98155 7.52159Z" stroke="#6E7191" stroke-width="2" stroke-linecap="round"/>
<path d="M11.0157 28.4635C11.5766 28.4635 12.0313 28.0088 12.0313 27.4479C12.0313 26.887 11.5766 26.4323 11.0157 26.4323C10.4548 26.4323 10.0001 26.887 10.0001 27.4479C10.0001 28.0088 10.4548 28.4635 11.0157 28.4635Z" stroke="#6E7191" stroke-width="2"/>
<path d="M25.2343 28.4635C25.7952 28.4635 26.2499 28.0088 26.2499 27.4479C26.2499 26.887 25.7952 26.4323 25.2343 26.4323C24.6734 26.4323 24.2187 26.887 24.2187 27.4479C24.2187 28.0088 24.6734 28.4635 25.2343 28.4635Z" stroke="#6E7191" stroke-width="2"/>
</svg>
