<svg width="38" height="38" viewBox="0 0 38 38" fill="none" xmlns="http://www.w3.org/2000/svg">
<path d="M3.06827 29.3117H15.5666V32.7373H13.1276C12.7236 32.7373 12.3896 33.0636 12.3896 33.4753V35.6114C12.3896 36.0153 12.7159 36.3493 13.1276 36.3493H24.8724C25.2764 36.3493 25.6104 36.0231 25.6104 35.6114V33.4753C25.6104 33.0713 25.2841 32.7373 24.8724 32.7373H22.4334V29.3117H34.9317C36.6251 29.3117 38 27.9368 38 26.2435V4.71893C38 3.02555 36.6251 1.65065 34.9317 1.65065H3.06827C1.3749 1.65065 0 3.02555 0 4.71893V26.2435C0 27.9368 1.3749 29.3117 3.06827 29.3117ZM4.18684 5.83749H33.8132V25.1016H4.18684V5.83749ZM22.9538 10.4904L25.3696 12.9217L19.8001 18.4601L17.3688 20.8759L14.953 18.4524L12.6226 16.1065L15.054 13.6907L17.3843 16.0366L22.9538 10.4904Z" fill="#4E4B66"/>
</svg>
