<svg width="45" height="44" viewBox="0 0 45 44" fill="none" xmlns="http://www.w3.org/2000/svg">
<path d="M21.2 40.1H24.1V40.6C24.1 40.8 24.1 40.7 24 40.8C23.9 40.9 23.5 41.1 22.7 41.1C21.9 41.1 21.5 40.9 21.4 40.8C21.3 40.7 21.3 40.8 21.3 40.6L21.2 40.1ZM19.3 36.2H26V37.2H25.5H19.6H19.3V36.2ZM19.3 32.3H26V33.3H19.3V32.3ZM37.9 20.5C37.1 20.5 36.5 21.2 36.5 22.1C36.5 22.9 37.2 23.5 38 23.5H42.8C43.6 23.5 44.3 22.9 44.3 22.1C44.3 21.3 43.7 20.6 42.9 20.6H38.1C38 20.5 37.9 20.5 37.9 20.5ZM2.3 20.6C1.5 20.6 0.900002 21.3 0.900002 22.2C0.900002 23 1.6 23.6 2.4 23.6H7.2C8 23.6 8.6 23 8.7 22.2C8.7 21.4 8.1 20.7 7.3 20.7H2.5C2.4 20.6 2.3 20.6 2.3 20.6ZM22.6 12.7C27.7 12.7 31.7 16.8 31.8 21.5C31.8 25.1 29.1 27.9 27.1 29.3H18.3C16.2 27.9 13.5 25.1 13.5 21.5C13.5 16.8 17.5 12.8 22.6 12.7ZM22.6 9.8C16 9.8 10.6 15.1 10.6 21.5C10.6 26.3 13.8 29.8 16.4 31.6V38.6C16.4 39.4 17 40.1 17.8 40.1H18.3V40.6C18.3 41.5 18.8 42.5 19.6 43.1C20.4 43.7 21.5 44 22.7 44C23.9 44 25 43.7 25.8 43.1C26.6 42.5 27.1 41.5 27.1 40.5V40H27.6C28.4 40 29 39.3 29 38.5V31.5C31.6 29.7 34.8 26.2 34.8 21.4C34.6 15.1 29.2 9.8 22.6 9.8ZM37.3 5.4C37 5.4 36.7 5.6 36.4 5.8L32.6 9.7C32 10.2 32 11.2 32.5 11.8C33 12.4 33.9 12.5 34.5 11.9L34.6 11.8L38.4 7.9C39 7.3 39 6.4 38.4 5.8C38.2 5.5 37.8 5.3 37.3 5.4ZM7.5 5.4C6.7 5.5 6.1 6.2 6.2 7C6.2 7.3 6.4 7.7 6.6 7.9L10.5 11.8C11 12.4 11.9 12.5 12.5 11.9C13.1 11.4 13.2 10.4 12.6 9.8L12.5 9.7L8.6 5.8C8.4 5.6 7.9 5.4 7.5 5.4ZM22.6 0C21.8 0 21.2 0.7 21.2 1.5V6.4C21.2 7.2 21.8 7.9 22.6 7.9C23.4 7.9 24 7.3 24.1 6.5V1.6C24 0.7 23.4 0 22.6 0Z" fill="#4E4B66"/>
</svg>
