<svg width="20" height="21" viewBox="0 0 20 21" fill="none" xmlns="http://www.w3.org/2000/svg">
<path d="M9.14625 17.371C10.706 17.371 12.2307 16.9085 13.5276 16.0419C14.8245 15.1754 15.8353 13.9437 16.4322 12.5027C17.0291 11.0617 17.1853 9.47602 16.881 7.94623C16.5767 6.41645 15.8256 5.01126 14.7227 3.90834C13.6198 2.80543 12.2146 2.05434 10.6848 1.75005C9.155 1.44575 7.56934 1.60193 6.12831 2.19882C4.68729 2.79571 3.45563 3.80651 2.58907 5.1034C1.72252 6.40029 1.26 7.92501 1.26 9.48476C1.26 11.5763 2.09087 13.5822 3.56983 15.0612C5.04879 16.5401 7.05469 17.371 9.14625 17.371V17.371Z" stroke="#A0A3BC" stroke-width="2" stroke-linecap="round" stroke-linejoin="round"/>
<path d="M18.7863 19.1247L14.8138 15.1522" stroke="#A0A3BC" stroke-width="2" stroke-linecap="round" stroke-linejoin="round"/>
</svg>
