<svg width="148" height="57" viewBox="0 0 148 57" fill="none" xmlns="http://www.w3.org/2000/svg">
<g clip-path="url(#clip0_1_2471)">
<path fill-rule="evenodd" clip-rule="evenodd" d="M7.39981 32.1538C3.31937 32.1538 0 35.4317 0 39.4614C0 43.4909 3.31937 46.7692 7.39981 46.7692C11.4802 46.7692 14.8 43.4909 14.8 39.4614C14.8 35.4317 11.4802 32.1538 7.39981 32.1538Z" fill="#BCBCBC"/>
<path fill-rule="evenodd" clip-rule="evenodd" d="M34.2375 26.7082C33.141 26.4869 32.0634 26.3894 31.0204 26.3075C27.7414 26.0487 26.9726 25.6237 26.6394 24.6872C26.5681 24.4864 26.4986 23.9762 26.8426 23.4484C27.4185 22.5639 28.8556 22.065 30.7847 22.0796C32.5736 22.0935 34.2088 22.7959 35.8069 23.5162C37.9747 24.611 40.5376 23.8046 41.5921 21.5866C42.4113 19.8646 42.1748 17.3122 39.5518 15.7049C36.8389 14.0428 33.9682 13.1779 30.8489 13.1544C24.1549 13.1031 20.9606 16.4649 19.6527 18.4731C17.7829 21.3436 17.3983 25.0429 18.6484 28.1279C21.2036 34.4325 26.9049 34.9147 30.3115 35.2035C31.1547 35.2746 31.9511 35.342 32.5733 35.4674C34.3185 35.8197 34.2779 37.1571 34.2521 37.4214C34.1371 38.599 32.7611 39.3208 30.6614 39.3047C28.3862 39.2874 26.2491 38.3258 24.6883 36.6412C24.3835 36.3125 23.8868 36.277 23.5413 36.5599L18.085 41.0295C17.7049 41.3409 17.6488 41.9194 17.97 42.2949C21.1761 46.0415 25.7292 48.1929 30.5973 48.2303C33.9694 48.2556 36.9191 47.2894 39.1276 45.436C41.2669 43.6406 42.5953 41.1119 42.8687 38.3157C43.122 35.722 42.4426 33.1317 40.955 31.0226C39.386 28.798 37.0002 27.2659 34.2375 26.7082Z" fill="#A0A3BC"/>
<path fill-rule="evenodd" clip-rule="evenodd" d="M69.4195 15.6343C65.655 13.4533 61.2228 12.8436 57.0839 13.8022V4.90884C57.0839 2.19792 55.0489 0 52.3846 0C49.7202 0 47.6852 2.19792 47.6852 4.90884V19.7404C46.2612 21.518 45.2064 23.5627 44.5829 25.7543C43.8632 28.2813 45.3545 30.7903 47.6852 31.5328V45.9063C47.6852 46.383 48.0673 46.7693 48.5394 46.7693H56.2297C56.7016 46.7693 57.0839 46.383 57.0839 45.9063V23.8849C58.9404 22.7711 61.183 22.4654 63.1644 23.1758C66.0818 24.222 66.0818 27.5403 66.0818 31.7589V45.9063C66.0818 46.383 66.4641 46.7693 66.9362 46.7693H74.6265C75.0984 46.7693 75.4807 46.383 75.4807 45.9063V29.3787C75.4807 18.6407 69.4195 15.6342 69.4195 15.6342V15.6343Z" fill="#A0A3BC"/>
<path fill-rule="evenodd" clip-rule="evenodd" d="M96.1996 38.5486C91.8129 38.5486 88.2443 35.0241 88.2443 30.6921C88.2443 26.3599 91.8129 22.8358 96.1996 22.8358C100.587 22.8358 104.156 26.3599 104.156 30.6921C104.156 35.0241 100.587 38.5486 96.1996 38.5486ZM96.1994 13.1538C86.4066 13.1538 78.4396 21.0211 78.4396 30.6921C78.4396 40.3626 86.4066 48.2307 96.1994 48.2307C105.992 48.2307 113.96 40.3626 113.96 30.6921C113.96 21.0211 105.992 13.1538 96.1994 13.1538Z" fill="#A0A3BC"/>
<path fill-rule="evenodd" clip-rule="evenodd" d="M138.442 31.9595C138.195 35.7424 135.04 38.7934 131.159 39.006C129.69 39.0864 128.304 38.763 127.103 38.1422V28.2317C127.103 25.3024 128.71 23.9289 130.677 23.9194H130.716C135.152 23.9194 138.729 27.575 138.442 31.9595ZM147.986 30.8046C147.645 22.1908 140.533 15.1264 131.707 14.6427C129.103 14.5 126.615 14.9239 124.359 15.7982C120.211 17.4062 117.562 21.0105 117.562 26.5992V30.7039C116.485 30.9034 115.525 31.4845 114.852 32.3642C113.999 33.4779 113.742 34.8836 114.147 36.2213C114.829 38.4689 116.007 40.59 117.562 42.3754V56.1548C117.562 56.6216 117.95 57.0001 118.429 57.0001H126.236C126.715 57.0001 127.103 56.6216 127.103 56.1548V47.9461C128.291 48.1952 129.502 48.3211 130.716 48.3219C140.472 48.3219 148.366 40.3983 147.986 30.8046Z" fill="#A0A3BC"/>
</g>
<defs>
<clipPath id="clip0_1_2471">
<rect width="148" height="57" fill="white"/>
</clipPath>
</defs>
</svg>
