<svg width="47" height="43" viewBox="0 0 47 43" fill="none" xmlns="http://www.w3.org/2000/svg">
<path d="M21.7 2H24V40.2H21.7V36.4C21.7 36 21.3 35.6 20.9 35.6H18.6C17.3 35.6 16.3 34.6 16.3 33.3V8.9C16.3 7.7 17.3 6.6 18.6 6.6H20.9C21.3 6.6 21.7 6.2 21.7 5.8V2ZM21 0.4C20.6 0.4 20.2 0.800001 20.2 1.2V5H18.7C16.6 5 14.8 6.7 14.8 8.8V33.3C14.8 35.4 16.5 37.1 18.7 37.1H20.2V40.9C20.2 41.3 20.6 41.7 21 41.7H24.9C25.3 41.7 25.7 41.3 25.7 40.9V1.2C25.7 0.800001 25.3 0.4 24.9 0.4C24.8 0.4 21 0.4 21 0.4Z" fill="#4E4B66" stroke="#4E4B66" stroke-width="0.6158" stroke-miterlimit="10"/>
<path d="M21.7 2H24V40.2H21.7V36.4C21.7 36 21.3 35.6 20.9 35.6H18.6C17.3 35.6 16.3 34.6 16.3 33.3V8.9C16.3 7.7 17.3 6.6 18.6 6.6H20.9C21.3 6.6 21.7 6.2 21.7 5.8V2ZM21 0.4C20.6 0.4 20.2 0.800001 20.2 1.2V5H18.7C16.6 5 14.8 6.7 14.8 8.8V33.3C14.8 35.4 16.5 37.1 18.7 37.1H20.2V40.9C20.2 41.3 20.6 41.7 21 41.7H24.9C25.3 41.7 25.7 41.3 25.7 40.9V1.2C25.7 0.800001 25.3 0.4 24.9 0.4C24.8 0.4 21 0.4 21 0.4Z" fill="#4E4B66" stroke="#4E4B66" stroke-width="0.6158" stroke-miterlimit="10"/>
<path d="M21 8H15.6V9.6H21V8Z" fill="#4E4B66" stroke="#4E4B66" stroke-width="0.6158" stroke-miterlimit="10"/>
<path d="M21 8H15.6V9.6H21V8Z" fill="#4E4B66" stroke="#4E4B66" stroke-width="0.6158" stroke-miterlimit="10"/>
<path d="M21 11.2H15.6V12.8H21V11.2Z" fill="#4E4B66" stroke="#4E4B66" stroke-width="0.6158" stroke-miterlimit="10"/>
<path d="M21 11.2H15.6V12.8H21V11.2Z" fill="#4E4B66" stroke="#4E4B66" stroke-width="0.6158" stroke-miterlimit="10"/>
<path d="M21 14.2H15.6V15.8H21V14.2Z" fill="#4E4B66" stroke="#4E4B66" stroke-width="0.6158" stroke-miterlimit="10"/>
<path d="M21 14.2H15.6V15.8H21V14.2Z" fill="#4E4B66" stroke="#4E4B66" stroke-width="0.6158" stroke-miterlimit="10"/>
<path d="M21 17.2H15.6V18.8H21V17.2Z" fill="#4E4B66" stroke="#4E4B66" stroke-width="0.6158" stroke-miterlimit="10"/>
<path d="M21 17.2H15.6V18.8H21V17.2Z" fill="#4E4B66" stroke="#4E4B66" stroke-width="0.6158" stroke-miterlimit="10"/>
<path d="M21 20.2H15.6V21.8H21V20.2Z" fill="#4E4B66" stroke="#4E4B66" stroke-width="0.6158" stroke-miterlimit="10"/>
<path d="M21 20.2H15.6V21.8H21V20.2Z" fill="#4E4B66" stroke="#4E4B66" stroke-width="0.6158" stroke-miterlimit="10"/>
<path d="M21 23.3H15.6V24.9H21V23.3Z" fill="#4E4B66" stroke="#4E4B66" stroke-width="0.6158" stroke-miterlimit="10"/>
<path d="M21 23.3H15.6V24.9H21V23.3Z" fill="#4E4B66" stroke="#4E4B66" stroke-width="0.6158" stroke-miterlimit="10"/>
<path d="M21 26.3H15.6V27.9H21V26.3Z" fill="#4E4B66" stroke="#4E4B66" stroke-width="0.6158" stroke-miterlimit="10"/>
<path d="M21 26.3H15.6V27.9H21V26.3Z" fill="#4E4B66" stroke="#4E4B66" stroke-width="0.6158" stroke-miterlimit="10"/>
<path d="M21 29.4H15.6V31H21V29.4Z" fill="#4E4B66" stroke="#4E4B66" stroke-width="0.6158" stroke-miterlimit="10"/>
<path d="M21 29.4H15.6V31H21V29.4Z" fill="#4E4B66" stroke="#4E4B66" stroke-width="0.6158" stroke-miterlimit="10"/>
<path d="M21 32.5H15.6V34.1H21V32.5Z" fill="#4E4B66" stroke="#4E4B66" stroke-width="0.6158" stroke-miterlimit="10"/>
<path d="M21 32.5H15.6V34.1H21V32.5Z" fill="#4E4B66" stroke="#4E4B66" stroke-width="0.6158" stroke-miterlimit="10"/>
<path d="M39.2 2H37V40.2H39.3V36.4C39.3 36 39.7 35.6 40.1 35.6H42.4C43.7 35.6 44.7 34.6 44.7 33.3V8.9C44.7 7.7 43.7 6.6 42.4 6.6H40C39.6 6.6 39.2 6.2 39.2 5.8V2ZM40 0.4C40.4 0.4 40.8 0.800001 40.8 1.2V5H42.3C44.4 5 46.2 6.7 46.2 8.8V33.3C46.2 35.4 44.5 37.1 42.3 37.1H40.8V40.9C40.8 41.3 40.4 41.7 40 41.7H36.1C35.7 41.7 35.3 41.3 35.3 40.9V1.2C35.3 0.800001 35.7 0.4 36.1 0.4C36.1 0.4 40 0.4 40 0.4Z" fill="#4E4B66" stroke="#4E4B66" stroke-width="0.6158" stroke-miterlimit="10"/>
<path d="M39.2 2H37V40.2H39.3V36.4C39.3 36 39.7 35.6 40.1 35.6H42.4C43.7 35.6 44.7 34.6 44.7 33.3V8.9C44.7 7.7 43.7 6.6 42.4 6.6H40C39.6 6.6 39.2 6.2 39.2 5.8V2ZM40 0.4C40.4 0.4 40.8 0.800001 40.8 1.2V5H42.3C44.4 5 46.2 6.7 46.2 8.8V33.3C46.2 35.4 44.5 37.1 42.3 37.1H40.8V40.9C40.8 41.3 40.4 41.7 40 41.7H36.1C35.7 41.7 35.3 41.3 35.3 40.9V1.2C35.3 0.800001 35.7 0.4 36.1 0.4C36.1 0.4 40 0.4 40 0.4Z" fill="#4E4B66" stroke="#4E4B66" stroke-width="0.6158" stroke-miterlimit="10"/>
<path d="M45.4 8H40V9.6H45.4V8Z" fill="#4E4B66" stroke="#4E4B66" stroke-width="0.6158" stroke-miterlimit="10"/>
<path d="M45.4 8H40V9.6H45.4V8Z" fill="#4E4B66" stroke="#4E4B66" stroke-width="0.6158" stroke-miterlimit="10"/>
<path d="M45.4 11.2H40V12.8H45.4V11.2Z" fill="#4E4B66" stroke="#4E4B66" stroke-width="0.6158" stroke-miterlimit="10"/>
<path d="M45.4 11.2H40V12.8H45.4V11.2Z" fill="#4E4B66" stroke="#4E4B66" stroke-width="0.6158" stroke-miterlimit="10"/>
<path d="M45.4 14.2H40V15.8H45.4V14.2Z" fill="#4E4B66" stroke="#4E4B66" stroke-width="0.6158" stroke-miterlimit="10"/>
<path d="M45.4 14.2H40V15.8H45.4V14.2Z" fill="#4E4B66" stroke="#4E4B66" stroke-width="0.6158" stroke-miterlimit="10"/>
<path d="M45.4 17.2H40V18.8H45.4V17.2Z" fill="#4E4B66" stroke="#4E4B66" stroke-width="0.6158" stroke-miterlimit="10"/>
<path d="M45.4 17.2H40V18.8H45.4V17.2Z" fill="#4E4B66" stroke="#4E4B66" stroke-width="0.6158" stroke-miterlimit="10"/>
<path d="M45.4 20.2H40V21.8H45.4V20.2Z" fill="#4E4B66" stroke="#4E4B66" stroke-width="0.6158" stroke-miterlimit="10"/>
<path d="M45.4 20.2H40V21.8H45.4V20.2Z" fill="#4E4B66" stroke="#4E4B66" stroke-width="0.6158" stroke-miterlimit="10"/>
<path d="M45.4 23.3H40V24.9H45.4V23.3Z" fill="#4E4B66" stroke="#4E4B66" stroke-width="0.6158" stroke-miterlimit="10"/>
<path d="M45.4 23.3H40V24.9H45.4V23.3Z" fill="#4E4B66" stroke="#4E4B66" stroke-width="0.6158" stroke-miterlimit="10"/>
<path d="M45.4 26.3H40V27.9H45.4V26.3Z" fill="#4E4B66" stroke="#4E4B66" stroke-width="0.6158" stroke-miterlimit="10"/>
<path d="M45.4 26.3H40V27.9H45.4V26.3Z" fill="#4E4B66" stroke="#4E4B66" stroke-width="0.6158" stroke-miterlimit="10"/>
<path d="M45.4 29.4H40V31H45.4V29.4Z" fill="#4E4B66" stroke="#4E4B66" stroke-width="0.6158" stroke-miterlimit="10"/>
<path d="M45.4 29.4H40V31H45.4V29.4Z" fill="#4E4B66" stroke="#4E4B66" stroke-width="0.6158" stroke-miterlimit="10"/>
<path d="M45.4 32.5H40V34.1H45.4V32.5Z" fill="#4E4B66" stroke="#4E4B66" stroke-width="0.6158" stroke-miterlimit="10"/>
<path d="M45.4 32.5H40V34.1H45.4V32.5Z" fill="#4E4B66" stroke="#4E4B66" stroke-width="0.6158" stroke-miterlimit="10"/>
<path d="M11 11.1C10.5 11.1 10.2 11.5 10.2 11.9V30.3C10.2 30.7 10.6 31.1 11 31.1C11.5 31.1 11.9 30.8 11.9 30.3V12C11.9 11.4 11.5 11.1 11 11.1Z" fill="#4E4B66" stroke="#4E4B66" stroke-width="0.6158" stroke-miterlimit="10"/>
<path d="M11 11.1C10.5 11.1 10.2 11.5 10.2 11.9V30.3C10.2 30.7 10.6 31.1 11 31.1C11.5 31.1 11.9 30.8 11.9 30.3V12C11.9 11.4 11.5 11.1 11 11.1Z" fill="#4E4B66" stroke="#4E4B66" stroke-width="0.6158" stroke-miterlimit="10"/>
<path d="M1.90001 11.1C1.40001 11.1 1.10001 11.5 1.10001 11.9V30.3C1.10001 30.7 1.50001 31.1 1.90001 31.1C2.40001 31.1 2.8 30.8 2.8 30.3V12C2.7 11.4 2.40001 11.1 1.90001 11.1Z" fill="#4E4B66" stroke="#4E4B66" stroke-width="0.6158" stroke-miterlimit="10"/>
<path d="M1.90001 11.1C1.40001 11.1 1.10001 11.5 1.10001 11.9V30.3C1.10001 30.7 1.50001 31.1 1.90001 31.1C2.40001 31.1 2.8 30.8 2.8 30.3V12C2.7 11.4 2.40001 11.1 1.90001 11.1Z" fill="#4E4B66" stroke="#4E4B66" stroke-width="0.6158" stroke-miterlimit="10"/>
<path d="M11 12.7H1.80002V14.3H11V12.7Z" fill="#4E4B66" stroke="#4E4B66" stroke-width="0.6158" stroke-miterlimit="10"/>
<path d="M11 12.7H1.80002V14.3H11V12.7Z" fill="#4E4B66" stroke="#4E4B66" stroke-width="0.6158" stroke-miterlimit="10"/>
<path d="M8.80001 13.4H7.20001V28.7H8.80001V13.4Z" fill="#4E4B66" stroke="#4E4B66" stroke-width="0.6158" stroke-miterlimit="10"/>
<path d="M8.80001 13.4H7.20001V28.7H8.80001V13.4Z" fill="#4E4B66" stroke="#4E4B66" stroke-width="0.6158" stroke-miterlimit="10"/>
<path d="M5.80001 13.4H4.20001V28.7H5.80001V13.4Z" fill="#4E4B66" stroke="#4E4B66" stroke-width="0.6158" stroke-miterlimit="10"/>
<path d="M5.80001 13.4H4.20001V28.7H5.80001V13.4Z" fill="#4E4B66" stroke="#4E4B66" stroke-width="0.6158" stroke-miterlimit="10"/>
<path d="M11 27.9H1.80002V29.5H11V27.9Z" fill="#4E4B66" stroke="#4E4B66" stroke-width="0.6158" stroke-miterlimit="10"/>
<path d="M11 27.9H1.80002V29.5H11V27.9Z" fill="#4E4B66" stroke="#4E4B66" stroke-width="0.6158" stroke-miterlimit="10"/>
<path d="M17.2 17.2H11V18.8H17.2V17.2Z" fill="#4E4B66" stroke="#4E4B66" stroke-width="0.6158" stroke-miterlimit="10"/>
<path d="M17.2 17.2H11V18.8H17.2V17.2Z" fill="#4E4B66" stroke="#4E4B66" stroke-width="0.6158" stroke-miterlimit="10"/>
<path d="M17.2 23.3H11V24.9H17.2V23.3Z" fill="#4E4B66" stroke="#4E4B66" stroke-width="0.6158" stroke-miterlimit="10"/>
<path d="M17.2 23.3H11V24.9H17.2V23.3Z" fill="#4E4B66" stroke="#4E4B66" stroke-width="0.6158" stroke-miterlimit="10"/>
<path d="M36.3 3.5H24.7V5.1H36.3V3.5Z" fill="#4E4B66" stroke="#4E4B66" stroke-width="0.6158" stroke-miterlimit="10"/>
<path d="M36.3 3.5H24.7V5.1H36.3V3.5Z" fill="#4E4B66" stroke="#4E4B66" stroke-width="0.6158" stroke-miterlimit="10"/>
<path d="M36.3 37H24.7V38.6H36.3V37Z" fill="#4E4B66" stroke="#4E4B66" stroke-width="0.6158" stroke-miterlimit="10"/>
<path d="M36.3 37H24.7V38.6H36.3V37Z" fill="#4E4B66" stroke="#4E4B66" stroke-width="0.6158" stroke-miterlimit="10"/>
<path d="M28.5 8.1H32.4V9.6H28.5V8.1ZM28.5 6.5C27.6 6.5 27 7.2 27 8V9.6C27 10.5 27.7 11.1 28.5 11.1H32.4C33.3 11.1 33.9 10.4 33.9 9.6V8.1C33.9 7.2 33.2 6.6 32.4 6.6L28.5 6.5Z" fill="#4E4B66" stroke="#4E4B66" stroke-width="0.6158" stroke-miterlimit="10"/>
<path d="M28.5 8.1H32.4V9.6H28.5V8.1ZM28.5 6.5C27.6 6.5 27 7.2 27 8V9.6C27 10.5 27.7 11.1 28.5 11.1H32.4C33.3 11.1 33.9 10.4 33.9 9.6V8.1C33.9 7.2 33.2 6.6 32.4 6.6L28.5 6.5Z" fill="#4E4B66" stroke="#4E4B66" stroke-width="0.6158" stroke-miterlimit="10"/>
<path d="M28.5 14.2H32.4V15.7H28.5V14.2ZM28.5 12.7C27.6 12.7 27 13.4 27 14.2V15.7C27 16.6 27.7 17.2 28.5 17.2H32.4C33.3 17.2 33.9 16.5 33.9 15.7V14.2C33.9 13.3 33.2 12.7 32.4 12.7C32.4 12.7 28.5 12.7 28.5 12.7Z" fill="#4E4B66" stroke="#4E4B66" stroke-width="0.6158" stroke-miterlimit="10"/>
<path d="M28.5 14.2H32.4V15.7H28.5V14.2ZM28.5 12.7C27.6 12.7 27 13.4 27 14.2V15.7C27 16.6 27.7 17.2 28.5 17.2H32.4C33.3 17.2 33.9 16.5 33.9 15.7V14.2C33.9 13.3 33.2 12.7 32.4 12.7C32.4 12.7 28.5 12.7 28.5 12.7Z" fill="#4E4B66" stroke="#4E4B66" stroke-width="0.6158" stroke-miterlimit="10"/>
<path d="M28.5 20.2H32.4V21.7H28.5V20.2ZM28.5 18.7C27.6 18.7 27 19.4 27 20.2V21.7C27 22.6 27.7 23.2 28.5 23.2H32.4C33.3 23.2 33.9 22.5 33.9 21.7V20.2C33.9 19.3 33.2 18.7 32.4 18.7H28.5Z" fill="#4E4B66" stroke="#4E4B66" stroke-width="0.6158" stroke-miterlimit="10"/>
<path d="M28.5 20.2H32.4V21.7H28.5V20.2ZM28.5 18.7C27.6 18.7 27 19.4 27 20.2V21.7C27 22.6 27.7 23.2 28.5 23.2H32.4C33.3 23.2 33.9 22.5 33.9 21.7V20.2C33.9 19.3 33.2 18.7 32.4 18.7H28.5Z" fill="#4E4B66" stroke="#4E4B66" stroke-width="0.6158" stroke-miterlimit="10"/>
<path d="M28.5 26.4H32.4V27.9H28.5V26.4ZM28.5 24.8C27.6 24.8 27 25.5 27 26.3V27.8C27 28.7 27.7 29.3 28.5 29.3H32.4C33.3 29.3 33.9 28.6 33.9 27.8V26.3C33.9 25.4 33.2 24.8 32.4 24.8H28.5Z" fill="#4E4B66" stroke="#4E4B66" stroke-width="0.6158" stroke-miterlimit="10"/>
<path d="M28.5 26.4H32.4V27.9H28.5V26.4ZM28.5 24.8C27.6 24.8 27 25.5 27 26.3V27.8C27 28.7 27.7 29.3 28.5 29.3H32.4C33.3 29.3 33.9 28.6 33.9 27.8V26.3C33.9 25.4 33.2 24.8 32.4 24.8H28.5Z" fill="#4E4B66" stroke="#4E4B66" stroke-width="0.6158" stroke-miterlimit="10"/>
<path d="M28.5 32.5H32.4V34H28.5V32.5ZM28.5 30.9C27.6 30.9 27 31.6 27 32.4V34C27 34.9 27.7 35.5 28.5 35.5H32.4C33.3 35.5 33.9 34.8 33.9 34V32.5C33.9 31.6 33.2 31 32.4 31H28.5V30.9Z" fill="#4E4B66" stroke="#4E4B66" stroke-width="0.6158" stroke-miterlimit="10"/>
<path d="M28.5 32.5H32.4V34H28.5V32.5ZM28.5 30.9C27.6 30.9 27 31.6 27 32.4V34C27 34.9 27.7 35.5 28.5 35.5H32.4C33.3 35.5 33.9 34.8 33.9 34V32.5C33.9 31.6 33.2 31 32.4 31H28.5V30.9Z" fill="#4E4B66" stroke="#4E4B66" stroke-width="0.6158" stroke-miterlimit="10"/>
<path d="M46.2 2H40V3.6H46.2V2Z" fill="#4E4B66" stroke="#4E4B66" stroke-width="0.6158" stroke-miterlimit="10"/>
<path d="M46.2 2H40V3.6H46.2V2Z" fill="#4E4B66" stroke="#4E4B66" stroke-width="0.6158" stroke-miterlimit="10"/>
</svg>
