<svg width="148" height="57" viewBox="0 0 148 57" fill="none" xmlns="http://www.w3.org/2000/svg">
<g clip-path="url(#clip0_1_861)">
<path fill-rule="evenodd" clip-rule="evenodd" d="M7.39981 32.1539C3.31937 32.1539 0 35.4317 0 39.4615C0 43.491 3.31937 46.7692 7.39981 46.7692C11.4802 46.7692 14.8 43.491 14.8 39.4615C14.8 35.4317 11.4802 32.1539 7.39981 32.1539Z" fill="#0039A6"/>
<path fill-rule="evenodd" clip-rule="evenodd" d="M34.2375 26.7083C33.141 26.4869 32.0634 26.3895 31.0204 26.3076C27.7414 26.0488 26.9726 25.6238 26.6394 24.6873C26.5681 24.4864 26.4986 23.9763 26.8426 23.4485C27.4185 22.564 28.8556 22.0651 30.7847 22.0797C32.5736 22.0936 34.2088 22.796 35.8069 23.5163C37.9747 24.6111 40.5376 23.8047 41.5921 21.5866C42.4113 19.8647 42.1748 17.3122 39.5518 15.705C36.8389 14.0429 33.9682 13.178 30.8489 13.1544C24.1549 13.1031 20.9606 16.465 19.6527 18.4731C17.7829 21.3436 17.3983 25.0429 18.6484 28.128C21.2036 34.4326 26.9049 34.9148 30.3115 35.2036C31.1547 35.2746 31.9511 35.3421 32.5733 35.4675C34.3185 35.8197 34.2779 37.1571 34.2521 37.4214C34.1371 38.5991 32.7611 39.3209 30.6614 39.3047C28.3862 39.2874 26.2491 38.3258 24.6883 36.6413C24.3835 36.3126 23.8868 36.2771 23.5413 36.56L18.085 41.0295C17.7049 41.3409 17.6488 41.9195 17.97 42.2949C21.1761 46.0415 25.7292 48.1929 30.5973 48.2304C33.9694 48.2556 36.9191 47.2895 39.1276 45.436C41.2669 43.6407 42.5953 41.112 42.8687 38.3158C43.122 35.7221 42.4426 33.1318 40.955 31.0226C39.386 28.7981 37.0002 27.2659 34.2375 26.7083Z" fill="#FC6901"/>
<path fill-rule="evenodd" clip-rule="evenodd" d="M69.4196 15.6343C65.6551 13.4533 61.2229 12.8436 57.084 13.8022V4.90884C57.084 2.19792 55.049 0 52.3846 0C49.7202 0 47.6852 2.19792 47.6852 4.90884V19.7404C46.2613 21.518 45.2065 23.5627 44.5829 25.7543C43.8632 28.2813 45.3546 30.7903 47.6852 31.5328V45.9063C47.6852 46.383 48.0674 46.7693 48.5395 46.7693H56.2298C56.7017 46.7693 57.084 46.383 57.084 45.9063V23.8849C58.9404 22.7711 61.183 22.4654 63.1645 23.1758C66.0818 24.222 66.0818 27.5403 66.0818 31.7589V45.9063C66.0818 46.383 66.4642 46.7693 66.9362 46.7693H74.6265C75.0984 46.7693 75.4808 46.383 75.4808 45.9063V29.3787C75.4808 18.6407 69.4196 15.6342 69.4196 15.6342V15.6343Z" fill="#FC6901"/>
<path fill-rule="evenodd" clip-rule="evenodd" d="M96.1996 38.5487C91.8129 38.5487 88.2443 35.0242 88.2443 30.6922C88.2443 26.36 91.8129 22.8359 96.1996 22.8359C100.587 22.8359 104.156 26.36 104.156 30.6922C104.156 35.0242 100.587 38.5487 96.1996 38.5487ZM96.1994 13.1539C86.4066 13.1539 78.4396 21.0212 78.4396 30.6922C78.4396 40.3626 86.4066 48.2307 96.1994 48.2307C105.992 48.2307 113.96 40.3626 113.96 30.6922C113.96 21.0212 105.992 13.1539 96.1994 13.1539Z" fill="#FC6901"/>
<path fill-rule="evenodd" clip-rule="evenodd" d="M138.442 31.9595C138.195 35.7424 135.04 38.7934 131.159 39.006C129.69 39.0864 128.304 38.763 127.103 38.1423V28.2317C127.103 25.3025 128.71 23.929 130.677 23.9195H130.716C135.152 23.9195 138.729 27.5751 138.442 31.9595ZM147.986 30.8047C147.645 22.1909 140.533 15.1265 131.707 14.6427C129.103 14.5 126.615 14.9239 124.359 15.7983C120.211 17.4063 117.562 21.0106 117.562 26.5992V30.704C116.485 30.9035 115.525 31.4845 114.852 32.3642C113.999 33.478 113.742 34.8836 114.147 36.2214C114.829 38.4689 116.007 40.5901 117.562 42.3755V56.1549C117.562 56.6217 117.95 57.0002 118.429 57.0002H126.236C126.715 57.0002 127.103 56.6217 127.103 56.1549V47.9461C128.291 48.1952 129.502 48.3212 130.716 48.3219C140.472 48.3219 148.366 40.3984 147.986 30.8047Z" fill="#FC6901"/>
</g>
<defs>
<clipPath id="clip0_1_861">
<rect width="148" height="57" fill="white"/>
</clipPath>
</defs>
</svg>
