<svg width="27" height="28" viewBox="0 0 27 28" fill="none" xmlns="http://www.w3.org/2000/svg">
<path d="M22.6232 18.429C19.9266 16.8346 16.7682 15.9166 13.5007 15.7773C10.2331 15.9166 7.07478 16.8346 4.37812 18.429C3.69063 18.8748 3.12669 19.4465 2.72701 20.1027C2.32732 20.7589 2.10186 21.4832 2.06688 22.2235L1.6875 25.651H25.3125L24.9345 22.2235C24.8994 21.4833 24.6739 20.7589 24.2742 20.1027C23.8745 19.4465 23.3106 18.8749 22.6232 18.429V18.429Z" stroke="#6E7191" stroke-width="2" stroke-linecap="round" stroke-linejoin="round"/>
<path d="M13.5 12.151C14.5013 12.151 15.48 11.8541 16.3126 11.2978C17.1451 10.7415 17.794 9.95089 18.1771 9.02584C18.5603 8.10079 18.6606 7.08289 18.4652 6.10086C18.2699 5.11883 17.7877 4.21678 17.0797 3.50877C16.3717 2.80077 15.4697 2.31862 14.4876 2.12328C13.5056 1.92794 12.4877 2.02819 11.5627 2.41136C10.6376 2.79453 9.84696 3.4434 9.29068 4.27593C8.73441 5.10845 8.4375 6.08723 8.4375 7.0885C8.4375 8.43116 8.97087 9.71883 9.92027 10.6682C10.8697 11.6176 12.1573 12.151 13.5 12.151V12.151Z" stroke="#6E7191" stroke-width="2" stroke-linecap="round" stroke-linejoin="round"/>
</svg>
