<svg width="16" height="18" viewBox="0 0 16 18" fill="none" xmlns="http://www.w3.org/2000/svg">
<path d="M9.162 12.889L14.254 16.425C14.3168 16.4686 14.3904 16.4942 14.4668 16.499C14.5431 16.5038 14.6193 16.4876 14.6871 16.4522C14.7549 16.4167 14.8117 16.3634 14.8514 16.298C14.891 16.2325 14.912 16.1575 14.912 16.081V4.853C14.912 4.41268 14.8253 3.97667 14.6568 3.56986C14.4883 3.16306 14.2413 2.79343 13.9299 2.48207C13.6186 2.17072 13.2489 1.92374 12.8421 1.75523C12.4353 1.58673 11.9993 1.5 11.559 1.5H4.853C3.96373 1.5 3.11088 1.85326 2.48207 2.48207C1.85326 3.11088 1.5 3.96373 1.5 4.853V16.08C1.50003 16.1565 1.521 16.2315 1.56064 16.297C1.60028 16.3624 1.65708 16.4157 1.72488 16.4512C1.79267 16.4866 1.86888 16.5028 1.94523 16.498C2.02158 16.4932 2.09516 16.4676 2.158 16.424L7.25 12.889C7.53069 12.6941 7.86426 12.5896 8.206 12.5896C8.54774 12.5896 8.88131 12.6941 9.162 12.889V12.889Z" stroke="#6E7191" stroke-width="2" stroke-linecap="round" stroke-linejoin="round"/>
</svg>
