<svg width="62" height="62" viewBox="0 0 62 62" fill="none" xmlns="http://www.w3.org/2000/svg">
<path d="M43.6183 0H18.3816C15.7388 0 13.589 2.14998 13.589 4.79256V57.2074C13.589 59.85 15.739 62 18.3816 62H43.6183C46.2609 62 48.4109 59.85 48.4109 57.2074V4.79256C48.4109 2.14998 46.2609 0 43.6183 0ZM15.4089 9.58513H46.5909V52.4149H15.4089V9.58513ZM18.3816 1.81996H43.6183C45.2574 1.81996 46.5909 3.15351 46.5909 4.79256V7.76517H15.4089V4.79256C15.4089 3.15351 16.7424 1.81996 18.3816 1.81996ZM43.6183 60.18H18.3816C16.7425 60.18 15.4089 58.8465 15.4089 57.2074V54.2348H46.5909V57.2074C46.5909 58.8465 45.2574 60.18 43.6183 60.18Z" fill="#6E7191"/>
<path d="M29.0587 5.70253H32.9412C33.4438 5.70253 33.8512 5.2951 33.8512 4.79255C33.8512 4.29 33.4438 3.88257 32.9412 3.88257H29.0587C28.5561 3.88257 28.1487 4.29 28.1487 4.79255C28.1487 5.2951 28.5561 5.70253 29.0587 5.70253Z" fill="#6E7191"/>
<path d="M26.1466 5.70253C26.3868 5.70253 26.621 5.60546 26.7896 5.4356C26.9595 5.26695 27.0565 5.03278 27.0565 4.79255C27.0565 4.55353 26.9595 4.31815 26.7896 4.1495C26.621 3.97963 26.3868 3.88257 26.1466 3.88257C25.9075 3.88257 25.6722 3.97963 25.5035 4.1495C25.3336 4.31815 25.2366 4.55353 25.2366 4.79255C25.2366 5.03278 25.3336 5.26695 25.5035 5.4356C25.6722 5.60534 25.9075 5.70253 26.1466 5.70253Z" fill="#6E7191"/>
<path d="M30.9999 55.3269C29.9629 55.3269 29.1193 56.1705 29.1193 57.2075C29.1193 58.2445 29.9629 59.0882 30.9999 59.0882C32.0369 59.0882 32.8805 58.2445 32.8805 57.2075C32.8805 56.1705 32.0369 55.3269 30.9999 55.3269ZM30.9999 57.2682C30.9664 57.2682 30.9392 57.241 30.9392 57.2075C30.9392 57.174 30.9664 57.1469 30.9999 57.1469C31.0334 57.1469 31.0606 57.174 31.0606 57.2075C31.0606 57.241 31.0334 57.2682 30.9999 57.2682Z" fill="#6E7191"/>
<path d="M43.6183 11.6477H18.3815C17.879 11.6477 17.4716 12.0551 17.4716 12.5577V18.3816C17.4716 18.8841 17.879 19.2915 18.3815 19.2915H43.6183C44.1209 19.2915 44.5283 18.8841 44.5283 18.3816V12.5577C44.5283 12.0551 44.1209 11.6477 43.6183 11.6477ZM42.7083 17.4716H19.2915V13.4677H42.7083V17.4716Z" fill="#6E7191"/>
<path d="M43.6183 22.325H18.3815C17.879 22.325 17.4716 22.7324 17.4716 23.2349C17.4716 23.7375 17.879 24.1449 18.3815 24.1449H43.6183C44.1209 24.1449 44.5283 23.7375 44.5283 23.2349C44.5283 22.7324 44.1209 22.325 43.6183 22.325Z" fill="#6E7191"/>
<path d="M40.7064 28.0275C41.209 28.0275 41.6164 27.6201 41.6164 27.1175C41.6164 26.6149 41.209 26.2075 40.7064 26.2075H21.2935C20.791 26.2075 20.3835 26.6149 20.3835 27.1175C20.3835 27.6201 20.791 28.0275 21.2935 28.0275H40.7064Z" fill="#6E7191"/>
<path d="M43.6183 32.0312H26.1467C25.6441 32.0312 25.2367 32.4387 25.2367 32.9412C25.2367 33.4438 25.6441 33.8512 26.1467 33.8512H43.6183C44.1208 33.8512 44.5283 33.4438 44.5283 32.9412C44.5283 32.4387 44.1208 32.0312 43.6183 32.0312Z" fill="#6E7191"/>
<path d="M20.3228 30.0901C18.7506 30.0901 17.4716 31.3692 17.4716 32.9414C17.4716 34.5136 18.7506 35.7926 20.3228 35.7926C21.895 35.7926 23.1741 34.5136 23.1741 32.9414C23.1741 31.3692 21.895 30.0901 20.3228 30.0901ZM20.3228 33.9727C19.7542 33.9727 19.2915 33.51 19.2915 32.9414C19.2915 32.3727 19.7542 31.91 20.3228 31.91C20.8915 31.91 21.3541 32.3727 21.3541 32.9414C21.3541 33.51 20.8915 33.9727 20.3228 33.9727Z" fill="#6E7191"/>
<path d="M43.6183 38.8259H26.1467C25.6441 38.8259 25.2367 39.2334 25.2367 39.7359C25.2367 40.2385 25.6441 40.6459 26.1467 40.6459H43.6183C44.1208 40.6459 44.5283 40.2385 44.5283 39.7359C44.5283 39.2334 44.1208 38.8259 43.6183 38.8259Z" fill="#6E7191"/>
<path d="M20.3228 36.8845C18.7506 36.8845 17.4716 38.1636 17.4716 39.7358C17.4716 41.308 18.7506 42.5871 20.3228 42.5871C21.895 42.5871 23.1741 41.308 23.1741 39.7358C23.1741 38.1636 21.895 36.8845 20.3228 36.8845ZM20.3228 40.7671C19.7542 40.7671 19.2915 40.3045 19.2915 39.7358C19.2915 39.1671 19.7542 38.7045 20.3228 38.7045C20.8915 38.7045 21.3541 39.1671 21.3541 39.7358C21.3541 40.3045 20.8915 40.7671 20.3228 40.7671Z" fill="#6E7191"/>
<path d="M43.6183 45.6204H26.1467C25.6441 45.6204 25.2367 46.0278 25.2367 46.5303C25.2367 47.0329 25.6441 47.4403 26.1467 47.4403H43.6183C44.1208 47.4403 44.5283 47.0329 44.5283 46.5303C44.5283 46.0278 44.1208 45.6204 43.6183 45.6204Z" fill="#6E7191"/>
<path d="M20.3228 43.679C18.7506 43.679 17.4716 44.958 17.4716 46.5302C17.4716 48.1024 18.7506 49.3815 20.3228 49.3815C21.895 49.3815 23.1741 48.1024 23.1741 46.5302C23.1741 44.958 21.895 43.679 20.3228 43.679ZM20.3228 47.5615C19.7542 47.5615 19.2915 47.0989 19.2915 46.5302C19.2915 45.9616 19.7542 45.4989 20.3228 45.4989C20.8915 45.4989 21.3541 45.9616 21.3541 46.5302C21.3541 47.0989 20.8915 47.5615 20.3228 47.5615Z" fill="#6E7191"/>
</svg>
