<svg width="51" height="24" viewBox="0 0 51 24" fill="none" xmlns="http://www.w3.org/2000/svg">
<path d="M4.18634 23.0755C4.51346 23.0755 4.86141 23.0709 5.2304 23.066C5.65015 23.0604 6.08434 23.0547 6.55017 23.0547C7.29715 23.0547 7.92261 23.0711 8.51951 23.1064C11.604 23.2815 35.2953 24 40.0945 24C42.5308 24 45.2238 23.3554 47.2984 22.2757C49.6855 21.0333 51 19.3619 51 17.5691C51 14.969 48 14.1293 44.8238 13.2401C43.092 12.7555 41.3013 12.2542 39.7881 11.4521C39.1066 11.0901 38.0674 10.5653 36.801 9.93819C36.803 9.90196 36.8066 9.86595 36.8066 9.82927C36.8066 8.75873 35.9259 7.8879 34.8433 7.8879C34.3573 7.8879 33.913 8.06432 33.5698 8.3546C33.1112 8.1316 32.6409 7.90343 32.1626 7.67177C32.1198 6.63847 31.2587 5.81028 30.2033 5.81028C29.7771 5.81028 29.3833 5.94675 29.0612 6.17583C28.6322 5.96959 28.2026 5.76325 27.7742 5.55769C27.7833 5.48209 27.7893 5.40558 27.7893 5.32761C27.7893 4.25718 26.9087 3.38635 25.8261 3.38635C25.2828 3.38635 24.7906 3.60586 24.4348 3.95959C20.25 1.9614 16.8191 0.338433 16.5117 0.193069C16.3244 0.0667192 16.1156 0 15.906 0C15.5681 0 15.2432 0.162466 15.0367 0.435192L12.7251 3.50043C12.4154 3.91526 12.2938 4.33335 12.3635 4.74345C12.5017 5.556 13.3493 6.13161 14.0304 6.59403C14.3016 6.77821 14.7048 7.05195 14.7696 7.18482C14.7687 7.18572 14.7676 7.18674 14.7667 7.18763C14.39 7.55183 13.1808 8.09391 11.3933 8.09391C10.3601 8.09391 9.27127 7.8987 8.24461 7.52911C6.98834 7.07681 6.46927 5.83582 6.05225 4.83864C5.70351 4.00459 5.40222 3.28441 4.73283 3.28441C4.22502 3.28441 3.63745 3.73491 2.7652 4.79431C-0.199626 8.52066 -0.0610392 14.2143 0.040227 18.3715C0.0510363 18.8167 0.0615043 19.2446 0.0675347 19.6507C0.114641 22.8299 1.80431 23.0755 4.18634 23.0755ZM29.0356 11.5241C29.0356 11.5241 29.4158 11.1519 29.8859 11.2911C30.2949 11.4122 31.2622 11.6698 31.854 11.8152C32.36 11.9395 31.9031 12.3329 31.9031 12.3329L24.2207 19.2861C24.2145 19.2905 23.9021 19.5724 23.4279 19.5724C22.6625 19.5724 21.1787 19.5666 20.5741 19.5666C20.0715 19.5666 20.4885 19.1473 20.4885 19.1473C20.4885 19.1473 29.0346 11.5241 29.0356 11.5241ZM23.186 9.88294C23.1881 9.88114 23.779 9.30486 24.4904 9.52752C24.8511 9.64037 25.6977 9.84818 26.2376 9.99759C26.6993 10.1253 26.2097 10.5963 26.2095 10.5967L16.6997 19.1222C16.6931 19.127 16.4731 19.52 15.7319 19.52C14.8955 19.52 13.2995 19.5579 12.6465 19.5579C12.2774 19.5579 12.6055 19.1653 12.6052 19.1655L23.186 9.88294Z" fill="#4E4B66"/>
</svg>
