<svg width="28" height="28" viewBox="0 0 28 28" fill="none" xmlns="http://www.w3.org/2000/svg">
<path d="M14 0C6.26613 0 0 6.26613 0 14C0 21.7339 6.26613 28 14 28C21.7339 28 28 21.7339 28 14C28 6.26613 21.7339 0 14 0ZM20.8306 9.59677L18.5726 20.4355C18.4032 21.2258 17.9516 21.3952 17.2742 21.0565L13.7742 18.4597L12.0806 20.0968C11.9113 20.2661 11.7419 20.4355 11.4032 20.4355L11.629 16.879L18.121 11.0081C18.4032 10.7823 18.0645 10.6129 17.6694 10.8387L9.65323 15.9194L6.20968 14.8468C5.47581 14.621 5.47581 14.0565 6.37903 13.7177L19.871 8.52419C20.4919 8.29839 21.0565 8.69355 20.8306 9.59677Z" fill="#C2C4D2"/>
</svg>
