<svg width="48" height="48" viewBox="0 0 48 48" fill="none" xmlns="http://www.w3.org/2000/svg">
<path d="M44.25 8.29688H28.3713L35.1682 1.5H30.9256L24.1287 8.29688H23.9182L17.1213 1.5H12.8787L19.6756 8.29688H3.75C3.15348 8.29757 2.58158 8.53485 2.15978 8.95665C1.73797 9.37846 1.50069 9.95035 1.5 10.5469V38.2969C1.50069 38.8934 1.73797 39.4653 2.15978 39.8871C2.58158 40.3089 3.15348 40.5462 3.75 40.5469H14.25V46.5H35.25V40.5469H44.25C44.8465 40.5462 45.4184 40.3089 45.8402 39.8871C46.262 39.4653 46.4993 38.8934 46.5 38.2969V10.5469C46.4993 9.95035 46.262 9.37846 45.8402 8.95665C45.4184 8.53485 44.8465 8.29757 44.25 8.29688ZM32.25 43.5H17.25V40.5469H32.25V43.5ZM43.5 37.5469H4.5V11.2969H43.5V37.5469Z" fill="#4E4B66"/>
</svg>
