<svg width="26" height="26" viewBox="0 0 26 26" fill="none" xmlns="http://www.w3.org/2000/svg">
<path d="M21.65 17.3523C19.0931 15.8406 16.0986 14.9702 13.0004 14.8381C9.90231 14.9702 6.90775 15.8406 4.35091 17.3523C3.69907 17.7751 3.16437 18.3171 2.78541 18.9392C2.40645 19.5614 2.19268 20.2482 2.15951 20.9501L1.7998 24.1999H24.1998L23.8414 20.9501C23.8081 20.2482 23.5943 19.5614 23.2154 18.9393C22.8364 18.3171 22.3018 17.7751 21.65 17.3523Z" fill="#F56E1E"/>
<path d="M13.0002 11.3999C13.9495 11.3999 14.8776 11.1184 15.6669 10.591C16.4563 10.0635 17.0715 9.31389 17.4348 8.43681C17.7981 7.55972 17.8932 6.5946 17.708 5.66349C17.5228 4.73239 17.0656 3.87711 16.3943 3.20582C15.723 2.53452 14.8677 2.07737 13.9366 1.89216C13.0055 1.70695 12.0404 1.80201 11.1633 2.16531C10.2862 2.52861 9.53657 3.14384 9.00914 3.93319C8.48171 4.72255 8.2002 5.65058 8.2002 6.59993C8.2002 7.87297 8.70591 9.09386 9.60608 9.99404C10.5063 10.8942 11.7272 11.3999 13.0002 11.3999Z" fill="#F56E1E"/>
</svg>
