<svg width="28" height="28" viewBox="0 0 28 28" fill="none" xmlns="http://www.w3.org/2000/svg">
<path d="M1.96817 1.96817C0 3.93633 0 7.10444 0 13.44V14.56C0 20.8956 0 24.0637 1.96817 26.0318C3.93633 28 7.10444 28 13.44 28H14.56C20.8956 28 24.0637 28 26.0318 26.0318C28 24.0637 28 20.8956 28 14.56V13.44C28 7.10444 28 3.93633 26.0318 1.96817C24.0637 0 20.8956 0 14.56 0H13.44C7.10444 0 3.93633 0 1.96817 1.96817ZM4.725 8.51669H7.92169C8.02669 13.86 10.3833 16.1233 12.25 16.59V8.51669H15.26V13.125C17.1033 12.9267 19.04 10.8267 19.6933 8.51669H22.7033C22.4571 9.71469 21.9662 10.8489 21.2616 11.8487C20.5571 12.8484 19.6538 13.6919 18.6083 14.3267C19.7756 14.9062 20.8067 15.7269 21.6332 16.7344C22.4598 17.7421 23.0631 18.9136 23.4033 20.1717H20.09C19.7847 19.0789 19.1634 18.1006 18.3041 17.3596C17.4448 16.6187 16.3858 16.148 15.26 16.0067V20.1717H14.8983C8.51669 20.1717 4.87667 15.7967 4.725 8.51669Z" fill="#A0A3BC"/>
</svg>
